<svg width="12" height="12" viewBox="0 0 120 120" fill="none" xmlns="http://www.w3.org/2000/svg"><rect width="120" height="120" rx="12" fill="#0545B1"></rect><g clip-path="url(#clip0_265_2)"><path d="M77.2738 38C70.5425 38 64.4935 40.8337 60.3327 45.3357C60.1552 45.5299 59.8469 45.5299 59.6695 45.3357C55.5065 40.8337 49.4596 38 42.7283 38C30.1761 38 20 47.8505 20 60.001C20 72.1516 30.1761 82.002 42.7283 82.002C49.4596 82.002 55.5086 79.1683 59.6695 74.6663C59.8469 74.4721 60.1552 74.4721 60.3327 74.6663C64.4935 79.1683 70.5425 82.002 77.2738 82.002C89.826 82.002 100.002 72.1516 100.002 60.001C100.002 47.8505 89.826 38 77.2738 38ZM77.2738 71.4401C73.6368 71.4401 70.5996 69.7431 68.7346 67.8274C68.1411 67.2161 67.4061 66.3779 66.595 65.6664C66.2085 65.327 65.8241 65.0244 65.4566 64.7504C63.9359 63.7016 62.0498 63.078 60.0011 63.078C57.9523 63.078 56.0662 63.7016 54.5455 64.7504C54.1759 65.0224 53.7936 65.327 53.4071 65.6664C52.596 66.3779 51.861 67.2161 51.2675 67.8274C49.4047 69.7431 46.3653 71.4401 42.7283 71.4401C42.6354 71.4401 42.5446 71.436 42.4516 71.4339C42.2953 71.4299 42.139 71.4258 41.9827 71.4155C41.875 71.4094 41.7694 71.3992 41.6638 71.391C41.6004 71.3869 41.5371 71.3808 41.4758 71.3747C35.5366 70.7695 30.909 65.9076 30.909 59.999V60.048V59.952V60.001C30.909 54.0944 35.5366 49.2326 41.4737 48.6253C41.5392 48.6192 41.6068 48.6151 41.6744 48.6069C41.7757 48.5988 41.8792 48.5906 41.9806 48.5845C42.1369 48.5763 42.2932 48.5722 42.4537 48.5661C42.5446 48.5661 42.6354 48.5599 42.7262 48.5599C46.3632 48.5599 49.4004 50.2569 51.2654 52.1726C51.8589 52.7839 52.5939 53.6221 53.405 54.3336C53.7915 54.673 54.1759 54.9756 54.5434 55.2496C56.0641 56.2984 57.9502 56.922 59.9989 56.922C62.0477 56.922 63.9338 56.2984 65.4545 55.2496C65.8241 54.9777 66.2064 54.673 66.5929 54.3336C67.404 53.6221 68.139 52.7839 68.7325 52.1726C70.5953 50.2569 73.6347 48.5599 77.2717 48.5599C77.3625 48.5599 77.4512 48.564 77.542 48.5661C77.7005 48.5701 77.861 48.5742 78.0173 48.5845C78.1165 48.5906 78.2179 48.5967 78.3172 48.6069C78.3869 48.611 78.4587 48.6172 78.5284 48.6253C84.2374 49.2101 88.7341 53.7285 89.0678 59.3304C89.0678 59.3672 89.072 59.404 89.0741 59.4388C89.0783 59.5431 89.0804 59.6473 89.0826 59.7516C89.0847 59.907 89.0868 60.0624 89.0826 60.2177C89.0804 60.3343 89.0804 60.4529 89.0741 60.5694C89.0741 60.5939 89.0699 60.6185 89.0699 60.643C88.7488 66.2552 84.248 70.7899 78.5284 71.3747C78.4566 71.3808 78.3848 71.3869 78.313 71.3931C78.2158 71.4012 78.1165 71.4094 78.0194 71.4155C77.8631 71.4237 77.7005 71.4278 77.542 71.4339C77.4512 71.4339 77.3625 71.4401 77.2717 71.4401V71.4442L77.2738 71.4401Z" fill="white"></path></g><defs><clipPath id="clip0_265_2"><rect width="88" height="48" fill="white" transform="translate(20 38)"></rect></clipPath></defs></svg>